<mxfile modified="2021-01-27T13:54:20.933Z" host="app.diagrams.net" agent="5.0 (Windows NT 10.0; Win64; x64) AppleWebKit/537.36 (KHTML, like Gecko) Chrome/88.0.4324.96 Safari/537.36 Edg/88.0.705.49" etag="6ZmoCpjGz5Z5yh1hd7Fs" version="14.2.7" type="github">
  <diagram id="Ht1M8jgEwFfnCIfOTk4-" name="Page-1">
    <mxGraphModel dx="1422" dy="762" grid="1" gridSize="10" guides="1" tooltips="1" connect="1" arrows="1" fold="1" page="1" pageScale="1" pageWidth="1169" pageHeight="827" math="0" shadow="0">
      <root>
        <mxCell id="0" />
        <mxCell id="1" parent="0" />
        <mxCell id="qUbSlGRHEwE6SEkssxQe-1" value="RabbitMQ" style="aspect=fixed;html=1;points=[];align=center;image;fontSize=12;image=img/lib/azure2/integration/Event_Grid_Topics.svg;" vertex="1" parent="1">
          <mxGeometry x="470" y="316" width="67" height="60" as="geometry" />
        </mxCell>
        <mxCell id="qUbSlGRHEwE6SEkssxQe-2" value="MongoDB&lt;br&gt;" style="aspect=fixed;html=1;points=[];align=center;image;fontSize=12;image=img/lib/azure2/databases/Managed_Database.svg;" vertex="1" parent="1">
          <mxGeometry x="850" y="314" width="68" height="64" as="geometry" />
        </mxCell>
        <mxCell id="qUbSlGRHEwE6SEkssxQe-4" style="edgeStyle=orthogonalEdgeStyle;rounded=0;orthogonalLoop=1;jettySize=auto;html=1;" edge="1" parent="1" source="qUbSlGRHEwE6SEkssxQe-3" target="qUbSlGRHEwE6SEkssxQe-1">
          <mxGeometry relative="1" as="geometry" />
        </mxCell>
        <mxCell id="qUbSlGRHEwE6SEkssxQe-5" style="edgeStyle=orthogonalEdgeStyle;rounded=0;orthogonalLoop=1;jettySize=auto;html=1;" edge="1" parent="1" source="qUbSlGRHEwE6SEkssxQe-3" target="qUbSlGRHEwE6SEkssxQe-2">
          <mxGeometry relative="1" as="geometry" />
        </mxCell>
        <mxCell id="qUbSlGRHEwE6SEkssxQe-3" value="Scheduling Service" style="aspect=fixed;html=1;points=[];align=center;image;fontSize=12;image=img/lib/azure2/app_services/App_Service_Domains.svg;" vertex="1" parent="1">
          <mxGeometry x="660" y="320" width="65" height="52" as="geometry" />
        </mxCell>
        <mxCell id="qUbSlGRHEwE6SEkssxQe-7" style="edgeStyle=orthogonalEdgeStyle;rounded=0;orthogonalLoop=1;jettySize=auto;html=1;" edge="1" parent="1" source="qUbSlGRHEwE6SEkssxQe-6" target="qUbSlGRHEwE6SEkssxQe-3">
          <mxGeometry relative="1" as="geometry" />
        </mxCell>
        <mxCell id="qUbSlGRHEwE6SEkssxQe-6" value="Dashboard&lt;br&gt;" style="aspect=fixed;html=1;points=[];align=center;image;fontSize=12;image=img/lib/azure2/app_services/App_Service_Plans.svg;" vertex="1" parent="1">
          <mxGeometry x="660" y="160" width="64" height="64" as="geometry" />
        </mxCell>
      </root>
    </mxGraphModel>
  </diagram>
</mxfile>
